<?xml version="1.0" encoding="utf-8" ?>
<svg baseProfile="full" height="120.0" version="1.1" viewBox="0 0 120.0 120.0" width="120.0" xmlns="http://www.w3.org/2000/svg" xmlns:ev="http://www.w3.org/2001/xml-events" xmlns:xlink="http://www.w3.org/1999/xlink"><defs /><path d="M45.0,52.5 C20.0,40.0, 20.0, 80.0, 45.0,67.5 L60.0,60.0 L45.0,52.5" fill="none" stroke="#009AAD" stroke-width="3" transform=" rotate(0, 60.0 60.0)" /><path d="M45.0,52.5 C20.0,40.0, 20.0, 80.0, 45.0,67.5 L60.0,60.0 L45.0,52.5" fill="none" stroke="#009AAD" stroke-width="3" transform=" rotate(90, 60.0 60.0)" /><path d="M45.0,52.5 C20.0,40.0, 20.0, 80.0, 45.0,67.5 L60.0,60.0 L45.0,52.5" fill="none" stroke="#009AAD" stroke-width="3" transform=" rotate(180, 60.0 60.0)" /><path d="M45.0,52.5 C20.0,40.0, 20.0, 80.0, 45.0,67.5 L60.0,60.0 L45.0,52.5" fill="none" stroke="#009AAD" stroke-width="3" transform=" rotate(270, 60.0 60.0)" /><path d="M47.5,53.75 C26.66666666666667,43.333333333333336, 26.66666666666667, 76.66666666666666, 47.5,66.25 L60.0,60.0 L47.5,53.75" fill="none" stroke="#1CD1E4" stroke-width="3" transform=" rotate(45, 60.0 60.0)"><animateTransform attributeName="transform" begin="0s" dur="8s" from="45 60.0 60.0" repeatCount="indefinite" to="405 60.0 60.0" type="rotate" /></path><path d="M47.5,53.75 C26.66666666666667,43.333333333333336, 26.66666666666667, 76.66666666666666, 47.5,66.25 L60.0,60.0 L47.5,53.75" fill="none" stroke="#1CD1E4" stroke-width="3" transform=" rotate(135, 60.0 60.0)"><animateTransform attributeName="transform" begin="0s" dur="8s" from="135 60.0 60.0" repeatCount="indefinite" to="495 60.0 60.0" type="rotate" /></path><path d="M47.5,53.75 C26.66666666666667,43.333333333333336, 26.66666666666667, 76.66666666666666, 47.5,66.25 L60.0,60.0 L47.5,53.75" fill="none" stroke="#1CD1E4" stroke-width="3" transform=" rotate(225, 60.0 60.0)"><animateTransform attributeName="transform" begin="0s" dur="8s" from="225 60.0 60.0" repeatCount="indefinite" to="585 60.0 60.0" type="rotate" /></path><path d="M47.5,53.75 C26.66666666666667,43.333333333333336, 26.66666666666667, 76.66666666666666, 47.5,66.25 L60.0,60.0 L47.5,53.75" fill="none" stroke="#1CD1E4" stroke-width="3" transform=" rotate(315, 60.0 60.0)"><animateTransform attributeName="transform" begin="0s" dur="8s" from="315 60.0 60.0" repeatCount="indefinite" to="675 60.0 60.0" type="rotate" /></path></svg>